<svg width="269" height="98" viewBox="0 0 269 98" fill="none" xmlns="http://www.w3.org/2000/svg">
<path d="M134.805 97.8727C127.222 97.8727 120.746 96.6895 115.378 94.3229C110.01 91.8719 105.622 88.5757 102.213 84.4342C98.8051 80.2083 96.2915 75.3907 94.6726 69.9815C93.0536 64.4878 92.2441 58.7405 92.2441 52.7397V45.3866C92.2441 36.9347 93.7779 29.2858 96.8454 22.4397C99.9128 15.5937 104.599 10.1423 110.905 6.08535C117.21 2.02845 125.177 0 134.805 0C144.434 0 152.358 2.02845 158.578 6.08535C164.884 10.1423 169.57 15.5937 172.638 22.4397C175.705 29.2858 177.239 36.9347 177.239 45.3866V52.7397C177.239 58.7405 176.429 64.4878 174.81 69.9815C173.192 75.3907 170.678 80.2083 167.27 84.4342C163.946 88.5757 159.601 91.8719 154.233 94.3229C148.865 96.6895 142.389 97.8727 134.805 97.8727ZM134.805 76.0669C141.111 76.0669 145.797 73.8694 148.865 69.4744C151.932 65.0794 153.466 58.3179 153.466 49.1899C153.466 39.4703 151.89 32.4975 148.737 28.2715C145.584 23.9611 140.94 21.8058 134.805 21.8058C128.585 21.8058 123.899 23.9611 120.746 28.2715C117.593 32.4975 116.017 39.3857 116.017 48.9364C116.017 58.1489 117.551 64.9949 120.618 69.4744C123.771 73.8694 128.5 76.0669 134.805 76.0669Z" fill="black"/>
<path d="M50.6006 29.0234V97.8726H72.9603V29.0234H50.6006Z" fill="#5200FF"/>
<path d="M0.808594 81.0832V56.4849L35.6482 0L54.758 12.1039L26.0283 58.9578L27.9783 61.8211H83.2277V81.0832H0.808594Z" fill="black"/>
<path d="M236.045 29.0234V97.8726H258.405V29.0234H236.045Z" fill="#5200FF"/>
<path d="M186.253 81.0832V56.4849L221.093 0L240.202 12.1039L211.473 58.9578L213.423 61.8211H268.672V81.0832H186.253Z" fill="black"/>
</svg>
