<svg width="573" height="560" viewBox="0 0 573 560" fill="none" xmlns="http://www.w3.org/2000/svg">
<rect width="573" height="560" fill="#CACAD7"/>
<ellipse rx="10.8291" ry="10.7503" transform="matrix(0.999999 -0.00108767 -0.00113878 -0.999999 242.841 268.858)" fill="black"/>
<ellipse rx="10.8291" ry="10.7503" transform="matrix(0.999999 -0.00108767 -0.00113878 -0.999999 295.066 268.801)" fill="black"/>
<path d="M332.019 279.512L310.361 279.535L310.337 258.035L332.019 279.512Z" fill="#5200FF"/>
<path d="M331.995 258.011L310.337 258.035L310.361 279.535L331.995 258.011Z" fill="black"/>
<path d="M269.074 258.079C275.055 258.072 279.909 262.88 279.916 268.818C279.922 274.755 275.08 279.573 269.099 279.58L269.074 258.079Z" fill="black"/>
<rect width="10.3134" height="21.5006" transform="matrix(0.999999 -0.00108767 -0.00113878 -0.999999 258.785 279.591)" fill="black"/>
<ellipse cx="338.006" cy="275.44" rx="3.99979" ry="3.90921" fill="#5200FF"/>
</svg>
