<svg width="92" height="92" viewBox="0 0 92 92" fill="none" xmlns="http://www.w3.org/2000/svg">
<rect width="92" height="92" fill="#5200FF"/>
<path d="M46 57C46 57 33.5 50 33.5 41.5C33.5 39.9974 34.0206 38.5411 34.9733 37.3791C35.9259 36.217 37.2518 35.4209 38.7252 35.1262C40.1987 34.8315 41.7288 35.0565 43.0551 35.7627C44.3814 36.469 45.4221 37.613 46 39V39C46.5779 37.613 47.6186 36.469 48.9449 35.7627C50.2712 35.0565 51.8013 34.8315 53.2748 35.1262C54.7482 35.4209 56.0741 36.217 57.0267 37.3791C57.9794 38.5411 58.5 39.9974 58.5 41.5C58.5 50 46 57 46 57Z" stroke="white" stroke-width="2" stroke-linecap="round" stroke-linejoin="round"/>
</svg>
