<svg width="68" height="68" viewBox="0 0 68 68" fill="none" xmlns="http://www.w3.org/2000/svg">
<circle cx="34" cy="34" r="34" fill="#F1F1F5"/>
<path fill-rule="evenodd" clip-rule="evenodd" d="M39.125 17.8729V26.4454C44.8569 28.5572 48.6728 33.9024 48.6728 40.0668C48.6728 48.1041 42.1126 54.6429 34.0517 54.6429C25.9882 54.6429 19.4287 48.1034 19.4287 40.0668C19.4287 33.9024 23.2446 28.5544 28.9777 26.4426V17.8729H26.1684V13.3572H41.9329V17.8729H39.125Z" fill="black"/>
<path d="M34.0001 54.6428C42.0477 54.6428 48.5716 48.1301 48.5716 40.0962C46.143 42.5207 41.2137 44.078 34.0001 40.0962C26.7144 36.0747 21.8573 37.6718 19.4287 40.0962C19.4287 48.1301 25.9526 54.6428 34.0001 54.6428Z" fill="#6E6BFF"/>
</svg>
