<svg width="68" height="68" viewBox="0 0 68 68" fill="none" xmlns="http://www.w3.org/2000/svg">
<circle cx="34" cy="34" r="34" fill="#F1F1F5"/>
<path d="M20.1077 26.7142L24.2857 41.2857H13.3572L20.1077 26.7142Z" fill="#6E6BFF"/>
<path d="M43.6388 15.0514C48.5417 17.3657 51.9385 21.8319 52.2095 27.0183C52.2212 27.2397 52.21 27.4637 52.2095 27.6878C52.2095 27.8048 52.1917 27.9218 52.1886 28.0361C52.1265 30.3173 51.4264 32.4655 50.2894 34.3618C49.2018 36.177 48.5183 38.1812 48.5183 40.2339V54.6429H29.0128V47.9368L22.9439 47.9363L19.7255 47.9368L19.7251 36.8931L19.7415 28.4722C19.7415 28.4722 19.7587 27.128 19.7587 26.8506V26.8255L19.7526 26.826C20.259 19.3122 27.3191 13.3572 35.9686 13.3572C38.2716 13.3572 40.4617 13.7794 42.4474 14.54C42.8537 14.6951 43.2518 14.8658 43.6388 15.0514Z" fill="black"/>
<path d="M41.8703 31.5714H29.7719C26.7415 31.5714 24.2856 29.0928 24.2856 25.9894C24.2856 22.8859 26.7421 20.3891 29.7719 20.3891C30.2893 20.3891 30.7874 20.4769 31.2614 20.6141C32.0493 18.4998 34.0428 17 36.3835 17C38.6536 17 40.6015 18.4145 41.436 20.4276C41.5794 20.4163 41.7238 20.4061 41.8703 20.4061C44.9006 20.4061 47.3571 22.8853 47.3571 25.9887C47.3571 29.0922 44.9006 31.5714 41.8703 31.5714Z" fill="#6E6BFF"/>
</svg>
