<svg width="68" height="68" viewBox="0 0 68 68" fill="none" xmlns="http://www.w3.org/2000/svg">
<path d="M34 68C52.7777 68 68 52.7777 68 34C68 15.2223 52.7777 0 34 0C15.2223 0 0 15.2223 0 34C0 52.7777 15.2223 68 34 68Z" fill="#F1F1F5"/>
<path d="M34 54.6429C45.4008 54.6429 54.6429 45.4008 54.6429 34C54.6429 22.5993 45.4008 13.3572 34 13.3572C22.5993 13.3572 13.3572 22.5993 13.3572 34C13.3572 45.4008 22.5993 54.6429 34 54.6429Z" fill="black"/>
<path d="M40.5732 37.8939V37.8938C40.5732 36.007 39.6828 34.7165 38.4655 33.778C37.2695 32.8557 35.7417 32.2605 34.4236 31.747L34.4039 31.7393C33.1309 31.2433 32.1464 30.8328 31.4786 30.3813C30.8218 29.9372 30.5266 29.4922 30.5266 28.9305C30.5266 27.9312 31.0128 27.3115 31.6581 26.9269C32.3195 26.5326 33.1477 26.3893 33.7706 26.3893C34.662 26.3893 35.4874 26.6423 36.0401 27.0592H36.0402C36.5879 27.4721 36.8514 28.0074 36.8514 28.7337V30.1429V30.4465H37.155H39.9736H40.2772V30.1429V28.7337C40.2772 25.4928 37.8714 23.5904 35.2047 23.0957V20.6428V20.3392H34.9012H32.0827H31.7791V20.6428L31.7789 23.2179C29.2588 23.8705 27.1001 25.7982 27.1001 28.9309C27.1001 30.7633 27.9766 32.0198 29.1713 32.9354C30.3452 33.8347 31.8445 34.419 33.1377 34.9232L33.1579 34.9309L33.1582 34.9311L33.1592 34.9315C34.4668 35.4408 35.4775 35.8633 36.1632 36.3359C36.8353 36.799 37.1468 37.2754 37.1468 37.8938C37.1468 38.7459 36.8302 39.3981 36.2109 39.8658L36.2108 39.8659C35.5933 40.3327 34.6643 40.6155 33.6564 40.6155C32.7079 40.6155 31.7395 40.3774 31.0181 39.8974C30.307 39.4243 29.8365 38.7199 29.8365 37.7461V36.337V36.0334H29.5329H26.7143H26.4108V36.337V37.7461C26.4108 41.1715 28.9243 43.2269 31.7785 43.8419V46.3615V46.6651H32.0821H34.9007H35.2043V46.3615V43.9032C36.3543 43.6946 37.4133 43.2512 38.276 42.5992C39.758 41.4795 40.5723 39.803 40.5732 37.8939Z" fill="#6E6BFF" stroke="#6E6BFF" stroke-width="0.5"/>
</svg>
