<svg width="68" height="68" viewBox="0 0 68 68" fill="none" xmlns="http://www.w3.org/2000/svg">
<circle cx="34" cy="34" r="34" fill="#F1F1F5"/>
<circle cx="22.8287" cy="35.7695" r="4.71837" fill="#6E6BFF"/>
<circle cx="26.3668" cy="25.1532" r="4.71837" fill="#6E6BFF"/>
<circle cx="38.1632" cy="21.6142" r="4.71837" fill="#6E6BFF"/>
<path d="M32.4716 13.605C27.61 14.4938 24.0549 16.3104 20.7748 19.6036C17.6383 22.7535 15.7824 26.2819 14.9069 30.7253C14.6062 32.2284 14.4887 34.5545 14.6324 36.1491C14.7761 37.7826 15.1943 40.0569 15.482 40.7233C15.5736 40.9454 15.6911 41.3244 15.7435 41.5729C15.7959 41.8211 15.9134 42.1739 16.005 42.3571C16.0966 42.54 16.227 42.8277 16.3057 43.0106C16.7109 43.9906 17.5342 45.559 17.8479 45.8989C17.9524 46.0034 18.0308 46.1604 18.0308 46.2255C18.0308 46.2909 18.3573 46.722 18.7496 47.1926C19.1416 47.6631 19.5206 48.1596 19.586 48.3033C19.6513 48.447 20.0174 48.8785 20.4093 49.2442L21.102 49.9369L51.1611 19.8777L50.4423 19.1589C50.0503 18.7669 49.6843 18.44 49.6319 18.44C49.5665 18.44 49.1092 18.0872 48.5864 17.6558C48.0767 17.2244 47.5802 16.8716 47.5015 16.8716C47.41 16.8716 47.2662 16.78 47.1749 16.6625C47.0704 16.5579 46.783 16.3618 46.5344 16.2311C46.2729 16.1003 45.7373 15.8391 45.345 15.63C44.9531 15.4339 44.5087 15.2118 44.365 15.1335C44.2213 15.0552 43.4633 14.7675 42.6661 14.493C39.5949 13.4214 35.4913 13.0686 32.4719 13.6042L32.4716 13.605ZM38.6793 18.4537C39.8033 18.7544 40.7834 19.839 41.1232 21.1329C41.7896 23.6944 39.3065 26.1907 36.7059 25.5894C34.1445 24.9751 32.9813 22.1 34.4189 19.9173C35.3339 18.5187 36.9152 17.9698 38.6795 18.4534L38.6793 18.4537ZM27.9624 21.8518C29.0864 22.1524 30.0665 23.237 30.4063 24.531C31.0727 27.0924 28.5896 29.5888 25.989 28.9874C23.4276 28.3731 22.2643 25.4981 23.702 23.3153C24.6169 21.9168 26.1983 21.3679 27.9626 21.8515L27.9624 21.8518ZM24.4336 32.5687C25.5576 32.8694 26.5377 33.954 26.8775 35.2479C27.5439 37.8094 25.0608 40.3057 22.4602 39.7044C19.8988 39.0901 18.7355 36.215 20.1732 34.0323C21.0882 32.6337 22.6695 32.0848 24.4338 32.5684L24.4336 32.5687Z" fill="black"/>
<path d="M51.8796 31.5234C50.5206 32.0461 47.8935 32.7129 44.966 33.2747C43.607 33.5362 42.7574 33.9544 41.947 34.7645C40.8884 35.8232 40.3786 37.1169 40.3786 38.7636V39.6786L29.4656 50.5916L33.5171 54.6431L44.3645 43.7957H45.3446C47.0567 43.7957 48.3374 43.2992 49.409 42.2273C50.4024 41.234 50.8597 40.097 51.2257 37.7185C51.4478 36.2941 52.5327 32.2947 52.8725 31.6153C53.1861 31.001 53.2123 31.0143 51.8792 31.5237L51.8796 31.5234Z" fill="black"/>
</svg>
