<svg width="82" height="16" viewBox="0 0 82 16" fill="none" xmlns="http://www.w3.org/2000/svg">
<ellipse rx="7.88537" ry="7.828" transform="matrix(0.999999 -0.00108767 -0.00113878 -0.999999 8.82615 7.90659)" fill="#CACAD7"/>
<ellipse rx="7.88537" ry="7.828" transform="matrix(0.999999 -0.00108767 -0.00113878 -0.999999 46.854 7.86558)" fill="#CACAD7"/>
<path d="M73.7622 15.6635L57.9915 15.6807L57.9736 0.024679L73.7622 15.6635Z" fill="#F1F1F5"/>
<path d="M73.7443 0.00726073L57.9736 0.0244141L57.9915 15.6804L73.7443 0.00726073Z" fill="#CACAD7"/>
<path d="M27.9282 0.0578821C32.2832 0.0531453 35.8176 3.55402 35.8225 7.8773C35.8274 12.2006 32.301 15.7091 27.946 15.7139L27.9282 0.0578821Z" fill="#CACAD7"/>
<rect width="7.50986" height="15.656" transform="matrix(0.999999 -0.00108767 -0.00113878 -0.999999 20.436 15.7217)" fill="#CACAD7"/>
<ellipse cx="78.1215" cy="12.6991" rx="2.91251" ry="2.84655" fill="#F1F1F5"/>
</svg>
