<svg width="24" height="25" viewBox="0 0 24 25" fill="none" xmlns="http://www.w3.org/2000/svg">
<path d="M20.5784 11.5941L4.74402 2.72535C4.61064 2.65167 4.45798 2.62036 4.30637 2.63559C4.15475 2.65083 4.01137 2.71188 3.89532 2.81063C3.77927 2.90938 3.69605 3.04113 3.65674 3.18835C3.61742 3.33557 3.62389 3.49127 3.67527 3.63473L6.65652 11.9972C6.7222 12.1596 6.7222 12.3411 6.65652 12.5035L3.67527 20.866C3.62389 21.0094 3.61742 21.1651 3.65674 21.3124C3.69605 21.4596 3.77927 21.5913 3.89532 21.6901C4.01137 21.7888 4.15475 21.8499 4.30637 21.8651C4.45798 21.8803 4.61064 21.849 4.74402 21.7754L20.5784 12.9066C20.6956 12.8417 20.7933 12.7467 20.8614 12.6313C20.9294 12.5159 20.9653 12.3843 20.9653 12.2504C20.9653 12.1164 20.9294 11.9849 20.8614 11.8694C20.7933 11.754 20.6956 11.659 20.5784 11.5941V11.5941Z" stroke="#767676" stroke-width="1.5" stroke-linecap="round" stroke-linejoin="round"/>
<path d="M6.75 12.25H12.75" stroke="#767676" stroke-width="1.5" stroke-linecap="round" stroke-linejoin="round"/>
</svg>
