<svg width="136" height="106" viewBox="0 0 136 106" fill="none" xmlns="http://www.w3.org/2000/svg">
<path d="M21.9486 57.2528L12.7892 64.9092C12.4587 65.1827 12.0575 65.3569 11.632 65.4115C11.2065 65.4662 10.7742 65.3991 10.3853 65.218C9.99644 65.0369 9.66687 64.7493 9.43485 64.3885C9.20282 64.0276 9.07786 63.6084 9.07446 63.1794V18.1484C9.07446 17.5468 9.31347 16.9698 9.73891 16.5443C10.1643 16.1189 10.7414 15.8799 11.343 15.8799H61.2514C61.8531 15.8799 62.4301 16.1189 62.8556 16.5443C63.281 16.9698 63.52 17.5468 63.52 18.1484V54.4455C63.52 55.0471 63.281 55.6242 62.8556 56.0496C62.4301 56.475 61.8531 56.714 61.2514 56.714H23.3948C22.8637 56.7142 22.3503 56.9054 21.9486 57.2528Z" fill="#F1F1F5"/>
<path d="M36.2969 39.7002C38.1762 39.7002 39.6997 38.1767 39.6997 36.2974C39.6997 34.418 38.1762 32.8945 36.2969 32.8945C34.4175 32.8945 32.894 34.418 32.894 36.2974C32.894 38.1767 34.4175 39.7002 36.2969 39.7002Z" fill="white"/>
<path d="M22.6856 39.7002C24.5649 39.7002 26.0884 38.1767 26.0884 36.2974C26.0884 34.418 24.5649 32.8945 22.6856 32.8945C20.8062 32.8945 19.2827 34.418 19.2827 36.2974C19.2827 38.1767 20.8062 39.7002 22.6856 39.7002Z" fill="white"/>
<path d="M49.9085 39.7002C51.7878 39.7002 53.3113 38.1767 53.3113 36.2974C53.3113 34.418 51.7878 32.8945 49.9085 32.8945C48.0291 32.8945 46.5056 34.418 46.5056 36.2974C46.5056 38.1767 48.0291 39.7002 49.9085 39.7002Z" fill="white"/>
<path d="M113.859 90.1952L123.018 97.8516C123.349 98.1251 123.75 98.2993 124.175 98.3539C124.601 98.4086 125.033 98.3415 125.422 98.1604C125.811 97.9793 126.141 97.6917 126.373 97.3308C126.605 96.97 126.73 96.5508 126.733 96.1218V51.0908C126.733 50.4892 126.494 49.9122 126.068 49.4867C125.643 49.0613 125.066 48.8223 124.464 48.8223H74.5559C73.9543 48.8223 73.3773 49.0613 72.9518 49.4867C72.5264 49.9122 72.2874 50.4892 72.2874 51.0908V87.3879C72.2874 87.9895 72.5264 88.5665 72.9518 88.992C73.3773 89.4174 73.9543 89.6564 74.5559 89.6564H112.413C112.944 89.6566 113.457 89.8478 113.859 90.1952Z" fill="#C1A4FF"/>
<path d="M99.5105 72.6426C97.6311 72.6426 96.1076 71.1191 96.1076 69.2398C96.1076 67.3604 97.6311 65.8369 99.5105 65.8369C101.39 65.8369 102.913 67.3604 102.913 69.2398C102.913 71.1191 101.39 72.6426 99.5105 72.6426Z" fill="white"/>
<path d="M113.122 72.6426C111.242 72.6426 109.719 71.1191 109.719 69.2398C109.719 67.3604 111.242 65.8369 113.122 65.8369C115.001 65.8369 116.525 67.3604 116.525 69.2398C116.525 71.1191 115.001 72.6426 113.122 72.6426Z" fill="white"/>
<path d="M85.8989 72.6426C84.0196 72.6426 82.4961 71.1191 82.4961 69.2398C82.4961 67.3604 84.0196 65.8369 85.8989 65.8369C87.7783 65.8369 89.3018 67.3604 89.3018 69.2398C89.3018 71.1191 87.7783 72.6426 85.8989 72.6426Z" fill="white"/>
</svg>
